<?xml version="1.0" encoding="UTF-8"?>
<svg version="1.1" xmlns="http://www.w3.org/2000/svg" width="1080" height="1080">
<path d="M0 0 C356.4 0 712.8 0 1080 0 C1080 356.4 1080 712.8 1080 1080 C723.6 1080 367.2 1080 0 1080 C0 723.6 0 367.2 0 0 Z " fill="#000000" transform="translate(0,0)"/>
<path d="M0 0 C1.04559082 0.03867188 2.09118164 0.07734375 3.16845703 0.1171875 C28.99359732 1.2401992 55.46159945 5.87450077 80 14 C80.81500977 14.26393555 81.63001953 14.52787109 82.46972656 14.79980469 C123.94232736 28.3224252 162.52792297 49.99914276 194.5546875 79.73828125 C196.6653644 81.6904888 198.81227557 83.57306278 201 85.4375 C208.97312077 92.39971384 216.17816462 99.9259862 222.765625 108.20703125 C225.05473871 111.06842339 227.42850025 113.84240157 229.8125 116.625 C238.27655107 126.78186129 245.68292191 137.7522462 252.8125 148.875 C253.25142578 149.54692383 253.69035156 150.21884766 254.14257812 150.91113281 C255.17738044 152.55849052 256.09976123 154.27542081 257 156 C255.7993458 159.60196261 255.14733522 159.7552492 251.8984375 161.4609375 C251.02646729 161.92628906 250.15449707 162.39164063 249.25610352 162.87109375 C248.30533936 163.36738281 247.3545752 163.86367188 246.375 164.375 C244.37018774 165.44361449 242.36631201 166.51398746 240.36328125 167.5859375 C239.31994629 168.14249023 238.27661133 168.69904297 237.20166016 169.27246094 C231.94685499 172.10782782 226.75436794 175.05139654 221.5625 178 C220.61101074 178.53931152 219.65952148 179.07862305 218.67919922 179.63427734 C217.77572754 180.14684082 216.87225586 180.6594043 215.94140625 181.1875 C215.0920752 181.66832031 214.24274414 182.14914062 213.36767578 182.64453125 C211.86833849 183.50288562 210.37606887 184.37380896 208.89404297 185.26171875 C204.30261787 188 204.30261787 188 201 188 C199.54882812 186.20263672 199.54882812 186.20263672 198.03125 183.6796875 C197.46575439 182.75849121 196.90025879 181.83729492 196.31762695 180.88818359 C195.71781006 179.89383301 195.11799316 178.89948242 194.5 177.875 C184.61502302 161.93082966 173.28233706 148.2395598 160 135 C159.35160156 134.31679688 158.70320313 133.63359375 158.03515625 132.9296875 C151.57738228 126.20337243 144.41341012 120.61313432 137 115 C136.10539062 114.31035156 135.21078125 113.62070312 134.2890625 112.91015625 C115.86500178 99.04959364 95.58017578 89.04786165 74.14257812 80.82373047 C72.4078634 80.15680619 70.6794613 79.47347752 68.953125 78.78515625 C42.56314599 68.58157741 13.75866216 65.77203541 -14.3125 65.75 C-15.2026178 65.74899292 -16.0927356 65.74798584 -17.00982666 65.74694824 C-30.55886298 65.75731079 -43.67931609 66.33643726 -57 69 C-58.11979248 69.20882812 -58.11979248 69.20882812 -59.26220703 69.421875 C-108.78400076 78.74159397 -151.9815942 103.31232348 -188 138 C-188.7940625 138.7528125 -189.588125 139.505625 -190.40625 140.28125 C-224.44930885 173.24357682 -247.15232443 221.70416389 -255 268 C-255.14953125 268.85094238 -255.2990625 269.70188477 -255.453125 270.57861328 C-266.1455401 333.70764594 -250.28836553 400.8516365 -213.42578125 453.00878906 C-207.27441553 461.59963475 -200.69606035 469.64461376 -193.46484375 477.34765625 C-191.50451132 479.45711064 -189.63945317 481.58945942 -187.8125 483.8125 C-184.56562598 487.63720753 -180.82763813 490.77240415 -177 494 C-176.07445312 494.81339844 -175.14890625 495.62679688 -174.1953125 496.46484375 C-124.04363527 540.29454475 -59.21509074 559.45014851 6.7421875 555.7265625 C20.3617115 554.72662202 33.69528214 551.98755071 47 549 C47.72912598 548.83773926 48.45825195 548.67547852 49.20947266 548.50830078 C108.11932034 535.05550942 159.66492192 496.7330903 193 447 C195.85280267 442.43531108 198.47135252 437.75171823 201 433 C204.45064709 434.32022419 207.68240276 435.82206449 210.9296875 437.58203125 C211.8794043 438.09596436 212.82912109 438.60989746 213.80761719 439.1394043 C214.81985352 439.69152588 215.83208984 440.24364746 216.875 440.8125 C218.44749512 441.66678589 218.44749512 441.66678589 220.05175781 442.53833008 C228.64689244 447.22430913 237.18094877 452.01503881 245.68701172 456.8605957 C246.5895166 457.37452881 247.49202148 457.88846191 248.421875 458.41796875 C249.21174805 458.86938232 250.00162109 459.3207959 250.81542969 459.78588867 C252.85144219 460.91743652 254.90801258 461.97635658 257 463 C256.32928824 467.00454376 254.32116534 470.20546192 252.25 473.625 C251.85731934 474.27452637 251.46463867 474.92405273 251.06005859 475.59326172 C242.85571537 488.90995404 233.35423363 501.29590462 223 513 C221.86304688 514.28583984 221.86304688 514.28583984 220.703125 515.59765625 C218.48450198 518.07983909 216.24341222 520.54021808 214 523 C213.12472656 523.9796875 212.24945312 524.959375 211.34765625 525.96875 C205.57642332 532.40252292 199.56132507 538.36349078 193 544 C192.04867187 544.83917969 191.09734375 545.67835938 190.1171875 546.54296875 C147.39270134 583.88768798 92.28660188 609.73617071 36.07861328 617.69580078 C32.38199697 618.2367902 28.70757346 618.9071782 25.03125 619.5703125 C16.72367965 620.74793201 8.42609927 621.17081959 0.04296875 621.23828125 C-0.97033005 621.2480751 -1.98362885 621.25786896 -3.02763367 621.26795959 C-25.34730497 621.43925662 -47.02127237 621.28260749 -69 617 C-70.06299316 616.80164551 -71.12598633 616.60329102 -72.22119141 616.39892578 C-141.69689367 603.0923651 -210.66132009 563.56444947 -254 507 C-255.02545416 505.69094581 -256.05154538 504.38239053 -257.078125 503.07421875 C-287.31498226 464.31186501 -308.43777039 419.32069995 -318 371 C-318.22091309 369.95948486 -318.22091309 369.95948486 -318.44628906 368.89794922 C-322.63607892 349.14407423 -323.18105358 329.06035069 -323.1875 308.9375 C-323.18849701 308.11578308 -323.18949402 307.29406616 -323.19052124 306.44744873 C-323.18835296 290.67380941 -322.52453918 275.21336729 -319.875 259.625 C-319.65763184 258.34061035 -319.44026367 257.0562207 -319.21630859 255.73291016 C-310.64820028 206.57137221 -289.63810314 160.29293453 -259 121 C-258.34644531 120.15308594 -257.69289063 119.30617188 -257.01953125 118.43359375 C-252.77127639 113.0151609 -248.26366044 107.89081412 -243.58984375 102.8359375 C-241.58160919 100.63687522 -239.63386299 98.41146577 -237.6953125 96.15234375 C-233.9978303 91.91667413 -230.04034425 88.02787592 -225.9375 84.1875 C-225.19725586 83.49317871 -224.45701172 82.79885742 -223.69433594 82.08349609 C-217.60231218 76.43445733 -211.26748457 71.23499131 -204.63232422 66.24267578 C-203.03872582 65.02948167 -201.47392406 63.77875338 -199.91015625 62.52734375 C-167.49834538 36.7368612 -128.81620439 19.57147762 -89 9 C-88.01821777 8.73606445 -87.03643555 8.47212891 -86.02490234 8.20019531 C-58.19575948 0.91219571 -28.64947052 -1.11947364 0 0 Z " fill="#FDFDFD" transform="translate(355,246)"/>
<path d="M0 0 C20.79 0 41.58 0 63 0 C63.33 169.62 63.66 339.24 64 514 C68.29 509.71 72.58 505.42 77 501 C81.25 497.25 81.25 497.25 83.11328125 495.6640625 C86.92552446 492.30171135 90.43782117 488.62296686 94 485 C98.84640404 480.07089282 103.72997619 475.31027789 108.97265625 470.8046875 C112.81998057 467.37990169 116.39014685 463.67145474 120 460 C124.84640404 455.07089282 129.72997619 450.31027789 134.97265625 445.8046875 C138.81998057 442.37990169 142.39014685 438.67145474 146 435 C150.84640404 430.07089282 155.72997619 425.31027789 160.97265625 420.8046875 C164.81998057 417.37990169 168.39014685 413.67145474 172 410 C176.84640404 405.07089282 181.72997619 400.31027789 186.97265625 395.8046875 C190.81998057 392.37990169 194.39014685 388.67145474 198 385 C202.84640404 380.07089282 207.72997619 375.31027789 212.97265625 370.8046875 C216.81998057 367.37990169 220.39014685 363.67145474 224 360 C228.87667061 355.04010975 233.76555718 350.19837469 239.078125 345.703125 C241.14333452 343.96416066 241.14333452 343.96416066 243.10270691 341.42903137 C246.80959478 338.32125227 249.65768308 338.32414077 254.27856445 338.43237305 C255.50860954 338.43127785 255.50860954 338.43127785 256.76350403 338.43016052 C259.46411126 338.43363385 262.16297673 338.47248121 264.86328125 338.51171875 C266.73942625 338.52104782 268.61558345 338.52816349 270.491745 338.53315735 C275.4223512 338.55221976 280.35221732 338.60131408 285.28253174 338.65667725 C290.31650786 338.70788604 295.35060394 338.73067488 300.38476562 338.75585938 C310.25683503 338.80943351 320.1283559 338.89473722 330 339 C329.22195511 339.77771759 328.44391022 340.55543518 327.64228821 341.35671997 C325.22854691 343.77136731 322.82208234 346.19296113 320.41796875 348.6171875 C318.67454827 350.3698604 316.93105665 352.12246256 315.1875 353.875 C314.32318359 354.74769531 313.45886719 355.62039063 312.56835938 356.51953125 C308.13970993 360.96489258 303.65359457 365.24334792 298.8918457 369.32861328 C295.60710625 372.23057822 292.56731346 375.37184462 289.5 378.5 C285.17908303 382.86747515 280.85299477 387.1063392 276.15234375 391.06640625 C272.32041767 394.50888068 268.75498084 398.22666402 265.13256836 401.88696289 C261.60521622 405.43702635 258.01118184 408.8008981 254.1875 412.03125 C251.00179249 414.89838676 248.01415242 417.95431879 245 421 C240.85491669 425.18844192 236.69083641 429.22670717 232.1875 433.03125 C229.00179249 435.89838676 226.01415242 438.95431879 223 442 C218.85491669 446.18844192 214.69083641 450.22670717 210.1875 454.03125 C207.00179232 456.89838692 204.01415455 459.95432076 201 463 C193.71895711 470.35711491 193.71895711 470.35711491 190.0625 473.4375 C185.97378849 476.89038596 182.26265302 480.70077198 178.5 484.5 C174.18071825 488.86126748 169.86311948 493.10085541 165.1640625 497.0546875 C161.28358166 500.54291757 157.66042609 504.30153941 154.00952148 508.02758789 C150.82458426 511.25900097 147.62405826 514.2495377 144 517 C145.39428897 521.336932 147.40122929 523.6973368 150.6875 526.8125 C154.32296564 530.33905725 157.74545864 533.91136841 161.0390625 537.75390625 C163.55573665 540.63655094 166.14954303 543.44300113 168.75 546.25 C169.26602783 546.80719727 169.78205566 547.36439453 170.3137207 547.93847656 C171.36320515 549.07152232 172.41276582 550.20449747 173.46240234 551.33740234 C175.83708074 553.90513176 178.20048145 556.4831282 180.5625 559.0625 C181.01206055 559.55331055 181.46162109 560.04412109 181.92480469 560.54980469 C182.83030793 561.53851282 183.73574434 562.52728217 184.64111328 563.51611328 C186.46779417 565.51082518 188.29549705 567.50459907 190.12329102 569.49829102 C191.03923222 570.49739624 191.95508545 571.49658211 192.87084961 572.49584961 C195.18593628 575.02196074 197.50211788 577.54705298 199.8203125 580.0703125 C204.04766751 584.67349765 208.26526083 589.28413776 212.4375 593.9375 C216.89397711 598.90238091 221.41948062 603.80134952 225.94921875 608.69921875 C232.15316761 615.4078422 238.33686793 622.1346369 244.4375 628.9375 C248.89397711 633.90238091 253.41948062 638.80134952 257.94921875 643.69921875 C264.15316761 650.4078422 270.33686793 657.1346369 276.4375 663.9375 C280.89397711 668.90238091 285.41948062 673.80134952 289.94921875 678.69921875 C296.15316761 685.4078422 302.33686793 692.1346369 308.4375 698.9375 C312.89397711 703.90238091 317.41948062 708.80134952 321.94921875 713.69921875 C328.35284551 720.62376335 334.72514596 727.57723755 341.0625 734.5625 C341.77535156 735.34753906 342.48820312 736.13257813 343.22265625 736.94140625 C345 739 345 739 347 742 C335.99501424 742.30234231 324.99102909 742.53275548 313.98272324 742.67355824 C308.86979381 742.74116987 303.75972206 742.83272173 298.6484375 742.98071289 C293.70740359 743.1228653 288.76910155 743.19987208 283.8261795 743.23340416 C281.9488856 743.25726969 280.07172735 743.30388016 278.19561005 743.37449074 C262.7765283 743.93127688 262.7765283 743.93127688 257.24987793 739.21054077 C254.60274808 736.55262619 252.32146203 733.69872563 250.16078949 730.63655663 C248.41732766 728.17851058 246.48301514 725.88312964 244.5625 723.5625 C243.50095703 722.23992187 243.50095703 722.23992187 242.41796875 720.890625 C238.46510244 716.16506592 234.22168733 711.71460089 230.0078125 707.22265625 C227.15453222 704.17862987 224.38811991 701.07033123 221.6640625 697.91015625 C219.68459874 695.63795489 217.6541683 693.41540128 215.625 691.1875 C212.57141133 687.81059018 209.65570795 684.36782868 206.8125 680.8125 C202.50464496 675.47860593 197.86140135 670.52484514 193.15356445 665.5480957 C189.01456789 661.15002799 185.17290385 656.59737199 181.40625 651.875 C178.4025791 648.28619841 175.21524703 644.89880547 172 641.5 C167.21104408 636.43735325 162.69833775 631.26882952 158.34765625 625.8203125 C154.4274265 621.11081852 150.19880954 616.69029491 146.0078125 612.22265625 C143.15453222 609.17862987 140.38811991 606.07033123 137.6640625 602.91015625 C135.68459874 600.63795489 133.6541683 598.41540128 131.625 596.1875 C128.57141133 592.81059018 125.65570795 589.36782868 122.8125 585.8125 C118.50464496 580.47860593 113.86140135 575.52484514 109.15356445 570.5480957 C105.01456789 566.15002799 101.17290385 561.59737199 97.40625 556.875 C94.40257486 553.28619334 91.21518984 549.89886638 88 546.5 C83.18639524 541.4096482 78.5986814 536.26108981 74.2578125 530.7578125 C70.96299801 526.73335051 67.45546464 522.88739772 64 519 C63.67 592.59 63.34 666.18 63 742 C42.21 742 21.42 742 0 742 C0 497.14 0 252.28 0 0 Z " fill="#FDFDFD" transform="translate(725,117)"/>
</svg>
